<?xml version="1.0" encoding="UTF-8"?>
<svg xmlns="http://www.w3.org/2000/svg" xmlns:xlink="http://www.w3.org/1999/xlink" width="20pt" height="20pt" viewBox="0 0 20 20" version="1.1">
<g id="surface1">
<path style=" stroke:none;fill-rule:nonzero;fill:rgb(98.431373%,73.333333%,0%);fill-opacity:1;" d="M 4.433594 12.085938 L 3.734375 14.683594 L 1.191406 14.738281 C 0.429688 13.328125 0 11.714844 0 10 C 0 8.339844 0.402344 6.777344 1.117188 5.402344 L 3.382812 5.816406 L 4.375 8.066406 C 4.167969 8.671875 4.054688 9.324219 4.054688 10 C 4.054688 10.734375 4.1875 11.4375 4.433594 12.085938 Z M 4.433594 12.085938 "/>
<path style=" stroke:none;fill-rule:nonzero;fill:rgb(31.764706%,55.686275%,97.254902%);fill-opacity:1;" d="M 19.824219 8.132812 C 19.941406 8.738281 20 9.363281 20 10 C 20 10.714844 19.925781 11.414062 19.78125 12.089844 C 19.292969 14.378906 18.023438 16.382812 16.261719 17.796875 L 13.40625 17.652344 L 13.003906 15.132812 C 14.171875 14.445312 15.085938 13.371094 15.566406 12.089844 L 10.21875 12.089844 L 10.21875 8.132812 Z M 19.824219 8.132812 "/>
<path style=" stroke:none;fill-rule:nonzero;fill:rgb(15.686275%,70.588235%,27.45098%);fill-opacity:1;" d="M 16.261719 17.796875 C 14.546875 19.175781 12.371094 20 10 20 C 6.191406 20 2.878906 17.871094 1.191406 14.738281 L 4.433594 12.085938 C 5.277344 14.339844 7.449219 15.945312 10 15.945312 C 11.09375 15.945312 12.121094 15.648438 13.003906 15.132812 Z M 16.261719 17.796875 "/>
<path style=" stroke:none;fill-rule:nonzero;fill:rgb(94.509804%,26.27451%,21.176471%);fill-opacity:1;" d="M 16.382812 2.300781 L 13.144531 4.953125 C 12.230469 4.382812 11.15625 4.054688 10 4.054688 C 7.394531 4.054688 5.179688 5.734375 4.375 8.066406 L 1.117188 5.402344 C 2.78125 2.191406 6.136719 0 10 0 C 12.425781 0 14.652344 0.863281 16.382812 2.300781 Z M 16.382812 2.300781 "/>
</g>
</svg>
