<svg xmlns="http://www.w3.org/2000/svg" width="20" height="20" viewBox="0 0 20 20">
    <defs>
        <clipPath id="t9oprxfzva">
            <path fill="#4267b2" stroke="#707070" d="M0 0H20V20H0z"/>
        </clipPath>
    </defs>
    <g clip-path="url(#t9oprxfzva)">
        <path fill="#4267b2" d="M20.9 2H3.1A1.1 1.1 0 0 0 2 3.1v17.8A1.1 1.1 0 0 0 3.1 22h9.58v-7.75h-2.6v-3h2.6V9a3.64 3.64 0 0 1 3.88-4 20.26 20.26 0 0 1 2.33.12v2.7H17.3c-1.26 0-1.5.6-1.5 1.47v1.93h3l-.39 3H15.8V22h5.1a1.1 1.1 0 0 0 1.1-1.1V3.1A1.1 1.1 0 0 0 20.9 2z" transform="translate(-2 -2)"/>
    </g>
</svg>
