<svg xmlns="http://www.w3.org/2000/svg" xmlns:xlink="http://www.w3.org/1999/xlink" width="193.992" height="193.992" viewBox="0 0 193.992 193.992">
  <defs>
    <clipPath id="clip-path">
      <rect id="Rectangle_1138" data-name="Rectangle 1138" width="94.181" height="102.346" fill="none"/>
    </clipPath>
  </defs>
  <g id="Group_1961" data-name="Group 1961" transform="translate(-587.094 -292.177)">
    <circle id="Ellipse_436" data-name="Ellipse 436" cx="96.996" cy="96.996" r="96.996" transform="translate(587.094 292.177)" fill="rgba(49,0,111,0.03)"/>
    <g id="Group_1960" data-name="Group 1960" transform="translate(637 338)">
      <g id="Group_1959" data-name="Group 1959" clip-path="url(#clip-path)">
        <path id="Path_2451" data-name="Path 2451" d="M87.366,0H36.448a3.9,3.9,0,0,0-3.9,3.9V29.411h7.836A3.368,3.368,0,0,1,43.252,31l2.716,4.323,2.6,4.131.488.777,2.971,4.726.034.054H91.264V3.9a3.9,3.9,0,0,0-3.9-3.9" transform="translate(-23.322)" fill="#ccc"/>
        <path id="Path_2452" data-name="Path 2452" d="M84.576,27.51H59.347a2.522,2.522,0,1,0,0,5.044H84.576a2.522,2.522,0,1,0,0-5.044" transform="translate(-40.715 -19.711)" fill="#fff"/>
        <path id="Path_2453" data-name="Path 2453" d="M98.563,71.19H59.573a2.753,2.753,0,0,0,0,5.506H98.563a2.753,2.753,0,1,0,0-5.506" transform="translate(-40.711 -51.007)" fill="#fff"/>
        <path id="Path_2454" data-name="Path 2454" d="M107.566,106.755a2.751,2.751,0,0,0-2.489-1.585H66.086c-.06,0-.116,0-.176.006a3.377,3.377,0,0,1,1.245,1.174l2.716,4.323h35.206a2.749,2.749,0,0,0,2.489-3.918" transform="translate(-47.224 -75.354)" fill="#fff"/>
        <path id="Path_2455" data-name="Path 2455" d="M124.373,141.531a2.753,2.753,0,0,0-2.724-2.381H89.04l.488.777,2.971,4.726h29.15a2.755,2.755,0,0,0,2.75-2.753,2.628,2.628,0,0,0-.026-.369" transform="translate(-63.797 -99.7)" fill="#fff"/>
        <path id="Path_2456" data-name="Path 2456" d="M156.729,30.042l-3.969-1.551-19.789-7.723L109.3,11.529a3.905,3.905,0,0,0-5.049,2.217l-.828,2.123-1.97,5.044-2.863,7.34-2.149,5.506-1.61,4.128-2.149,5.5L91.063,47.52l-.045.119-.258.658,2.971,4.726.034.054H148.8a3.379,3.379,0,0,1,2.634,1.259l.232-.59,2.841-7.275,4.44-11.377a3.906,3.906,0,0,0-2.214-5.052" transform="translate(-65.029 -8.07)" fill="#31006f"/>
        <path id="Path_2457" data-name="Path 2457" d="M179.038,53.628l-2.121-.828-21.382-8.344a2.523,2.523,0,1,0-1.834,4.7l7.062,2.756,8.735,3.408,7.419,2.9.286.111a2.523,2.523,0,0,0,1.834-4.7" transform="translate(-108.975 -31.73)" fill="#fff"/>
        <path id="Path_2458" data-name="Path 2458" d="M175.935,99.578l-10.648-4.156-7.6-2.965-4.06-1.585-10.575-4.128L139.615,85.4a2.753,2.753,0,0,0-3.467,1.341c-.034.071-.068.145-.1.221a2.751,2.751,0,0,0,1.562,3.563h0l.879.343,14.1,5.5,12.7,4.956,8.647,3.377a2.753,2.753,0,1,0,2-5.129Z" transform="translate(-97.344 -61.055)" fill="#fff"/>
        <path id="Path_2459" data-name="Path 2459" d="M156.424,128.436l-.683-.266-6.682-2.608-6.1-2.381-10.586-4.131-5.12-2a2.752,2.752,0,0,0-2.006,5.126l.007,0,2.563,1,12.786,4.99,1.315.513.136.054h15.142Z" transform="translate(-88.482 -83.73)" fill="#fff"/>
        <path id="Path_2460" data-name="Path 2460" d="M121.719,151.359l-1.315-.513-5.5-2.146a2.748,2.748,0,0,0-3.72,2.146,2.59,2.59,0,0,0-.031.513.313.313,0,0,0,0,.054h10.7Z" transform="translate(-79.641 -106.406)" fill="#fff"/>
        <path id="Path_2461" data-name="Path 2461" d="M53.432,117.849l-1.315-.513H31.546a2.614,2.614,0,0,0-.031.513H28.7l.034.054H53.569Zm0,0H28.7l.034.054H53.569Zm0,0H28.7l.034.054H53.569Zm.136.054-.136-.054H28.7l.034.054ZM3.952,174.675A3.39,3.39,0,0,1,.567,171.29V105.695a3.391,3.391,0,0,1,3.385-3.388H9.228v-.567H3.952A3.959,3.959,0,0,0,0,105.695V171.29a3.956,3.956,0,0,0,2.316,3.595H52.264c-.045-.068-.091-.139-.136-.21Zm82.682-56.1a3.935,3.935,0,0,0-2.866-1.236H29.051l-3.062-4.871-.074-.119-2.6-4.131-2.909-4.627a3.962,3.962,0,0,0-3.345-1.848H3.952A3.959,3.959,0,0,0,0,105.695V171.29a3.955,3.955,0,0,0,2.316,3.595,3.9,3.9,0,0,0,1.636.357H83.768a3.911,3.911,0,0,0,1.639-.357,3.955,3.955,0,0,0,2.316-3.595v-50A3.932,3.932,0,0,0,86.634,118.572Zm.522,52.718a3.391,3.391,0,0,1-3.388,3.385H3.952A3.39,3.39,0,0,1,.567,171.29V105.695a3.391,3.391,0,0,1,3.385-3.388H17.064a3.368,3.368,0,0,1,2.866,1.585l2.716,4.323,2.6,4.131.488.777,2.971,4.726.034.054H83.768a3.391,3.391,0,0,1,3.388,3.388ZM53.432,117.849H28.7l.034.054H53.569Zm0,0H28.7l.034.054H53.569Zm0,0H28.7l.034.054H53.569Zm0,0-1.315-.513H29.051l-3.062-4.871-.258.658,2.971,4.726.034.054H53.569Z" transform="translate(0 -72.896)" fill="#3f3d56"/>
      </g>
    </g>
  </g>
</svg>
